<svg xmlns="http://www.w3.org/2000/svg" viewBox="0 0 45 70" fill="none">
<path d="M25.0803 25.457L27.6504 20.9815L21.8456 10.8785H16.6833L6.33655 28.7803H11.4988L19.2534 15.3761L25.0803 25.457Z" fill="currentColor">
</path><path d="M25.0803 28.9354L19.2534 18.8546L16.6611 23.3079L22.4659 33.433H27.6282L37.975 15.509H32.8127L25.0803 28.9354Z" fill="currentColor">
</path>
<path d="M37.975 0H6.33655C2.83594 0 0 2.83594 0 6.31439V37.975C0 41.4756 2.83594 44.3115 6.33655 44.3115H37.9971C41.4977 44.3115 44.3337 41.4756 44.3337 37.975V6.31439C44.3115 2.83594 41.4756 0 37.975 0ZM42.2067 37.975C42.2067 40.3013 40.3235 42.1846 37.9971 42.1846H6.33655C4.01019 42.1846 2.12695 40.3013 2.12695 37.975V6.31439C2.12695 3.98804 4.01019 2.1048 6.33655 2.1048H37.9971C40.3235 2.1048 42.2067 3.98804 42.2067 6.31439V37.975Z" fill="currentColor">
</path>

</svg>